<?xml version="1.0" encoding="UTF-8" standalone="no"?>
<!-- Created with Inkscape (http://www.inkscape.org/) -->

<svg
   width="40mm"
   height="40mm"
   viewBox="0 0 40 40"
   version="1.1"
   id="svg1"
   xmlns="http://www.w3.org/2000/svg"
   xmlns:svg="http://www.w3.org/2000/svg">
  <defs
     id="defs1" />
  <g
     id="layer1">
    <path
       id="path2"
       style="display:inline;fill:#5fa8d1;stroke-width:0.264583"
       d="M 35.049936,4.656492 8.8334456,4.660622 1.9883855,32.653229 c -0.38564,1.593799 1.02777,2.557001 2.66754,2.564701 1.94838,0.0089 2.2446,0.01218 3.7439601,0.01964 L 7.5286155,14.351508 h 6.8336905 l 1.34307,17.244942 11.82926,-16.917314 h 1.90996 l -14.32264,20.594092 c 9.33072,0.05709 1.47723,0.05056 16.25585,0.07028 l 6.67453,-28.327987 c 0.26814,-1.134836 -1.83632,-2.359031 -3.0024,-2.359029 z m -3.67833,10.022644 c 0.58109,0 1.03146,0.468753 1.03146,1.031979 v 0.0057 c 0,0.563246 -0.45641,1.037663 -1.03146,1.037663 -0.58111,0 -1.03146,-0.468107 -1.03146,-1.031462 v -0.0062 c 0,-0.563292 0.45621,-1.037663 1.03146,-1.037663 z m 0,0.112655 c -0.51598,0 -0.91312,0.420987 -0.91312,0.925008 v 0.0057 c 0,0.504085 0.39127,0.919323 0.91312,0.919323 0.51578,0 0.91312,-0.421032 0.91312,-0.925008 v -0.0057 c 0,-0.503956 -0.39148,-0.919324 -0.91312,-0.919323 z m -0.48007,0.356051 h 0.5333 c 0.30841,0 0.49816,0.130295 0.49816,0.379305 0,0.171834 -0.0828,0.278715 -0.21911,0.337963 l 0.25477,0.373621 h -0.41497 l -0.20774,-0.308508 h -0.07699 v 0.308508 h -0.36742 z m 0.36742,0.302307 v 0.213423 h 0.15399 c 0.0889,0 0.14263,-0.03581 0.14263,-0.10697 0,-0.07116 -0.04758,-0.106453 -0.13643,-0.106453 z" />
  </g>
</svg>
